<?xml version="1.0" standalone="no"?>
<!DOCTYPE svg PUBLIC "-//W3C//DTD SVG 20010904//EN"
 "http://www.w3.org/TR/2001/REC-SVG-20010904/DTD/svg10.dtd">
<svg version="1.0" xmlns="http://www.w3.org/2000/svg"
 width="670.000000pt" height="670.000000pt" viewBox="0 0 670.000000 670.000000"
 preserveAspectRatio="xMidYMid meet">
<metadata>
Created by potrace 1.14, written by Peter Selinger 2001-2017
</metadata>
<g transform="translate(0.000000,670.000000) scale(0.100000,-0.100000)"
fill="#000000" stroke="none">
<path d="M2866 6593 c-30 -60 -126 -286 -126 -296 0 -2 24 -7 53 -11 82 -10
290 -47 397 -71 146 -32 469 -129 601 -180 9 -3 16 -1 16 7 0 7 4 60 8 118 12
162 12 182 -5 191 -87 50 -387 167 -575 224 -100 30 -312 85 -330 85 -3 0 -20
-30 -39 -67z"/>
<path d="M4009 6218 c-3 -38 -6 -79 -13 -174 l-7 -91 130 -67 c72 -36 149 -77
171 -91 22 -14 44 -25 50 -25 5 0 10 -4 10 -10 0 -5 5 -10 10 -10 21 0 255
-166 323 -228 l27 -26 0 81 c0 45 -4 92 -9 105 -13 31 -166 186 -277 279 -121
101 -381 279 -408 279 -3 0 -7 -10 -7 -22z"/>
<path d="M1868 6175 c-2 -1 -50 -5 -108 -9 -99 -5 -191 -14 -235 -21 -11 -2
-25 -4 -32 -4 -12 -1 -18 -16 -79 -224 -30 -103 -68 -249 -80 -312 -5 -27 11
-33 59 -24 23 4 85 10 137 14 52 4 120 8 150 10 30 2 138 4 240 5 163 0 229
-2 408 -14 48 -3 56 5 66 64 3 19 32 138 65 265 33 126 59 231 58 232 -12 11
-637 29 -649 18z"/>
<path d="M2623 5923 c-87 -310 -95 -347 -78 -348 19 -2 140 -17 155 -20 19 -4
79 -13 128 -21 172 -26 466 -104 682 -181 85 -30 162 -57 171 -59 13 -5 18 5
23 43 4 26 9 55 11 63 12 57 52 303 61 382 4 29 8 56 11 61 12 20 -417 171
-575 202 -9 1 -44 10 -77 18 -86 22 -295 60 -396 72 l-55 7 -61 -219z"/>
<path d="M3945 5658 c-11 -62 -20 -115 -20 -118 -1 -3 -7 -32 -15 -65 -7 -33
-14 -64 -16 -70 -1 -5 -11 -48 -23 -94 -12 -47 -18 -88 -14 -92 5 -3 64 -35
132 -69 228 -116 444 -260 598 -400 18 -17 37 -29 42 -26 5 3 14 34 21 68 29
150 34 185 45 308 3 41 8 91 11 110 4 32 -1 40 -48 86 -137 130 -277 237 -439
337 -88 54 -240 137 -252 137 -1 0 -11 -51 -22 -112z"/>
<path d="M1798 5424 c-2 -1 -49 -5 -105 -8 -103 -6 -211 -15 -249 -21 -11 -2
-50 -6 -87 -10 -61 -7 -66 -9 -71 -34 -11 -50 -16 -86 -22 -146 -3 -33 -8 -71
-10 -85 -2 -14 -7 -94 -10 -179 l-7 -154 34 6 c123 22 158 28 194 32 22 3 56
7 75 9 112 14 262 21 468 21 127 0 233 3 233 8 1 4 2 10 3 15 1 4 6 36 10 72
4 36 9 72 11 80 23 122 58 312 62 335 3 17 6 34 6 39 1 4 -7 10 -18 13 -21 4
-513 11 -517 7z"/>
<path d="M2489 5393 c0 -4 -2 -15 -4 -23 -5 -27 -74 -374 -80 -405 -3 -16 -8
-51 -12 -77 -5 -45 -5 -48 18 -49 13 0 38 -2 54 -5 59 -8 180 -25 205 -30 14
-2 41 -7 60 -10 140 -21 501 -126 667 -192 41 -17 53 -19 62 -8 45 54 201 486
188 520 -3 8 -25 20 -49 29 -24 8 -88 31 -143 51 -122 43 -309 95 -470 130
-223 48 -494 86 -496 69z"/>
<path d="M980 5318 c-138 -34 -364 -99 -465 -134 -91 -33 -131 -57 -121 -73 2
-3 7 -53 10 -111 6 -99 9 -138 21 -235 3 -22 7 -60 10 -85 9 -79 17 -124 21
-131 2 -4 58 15 125 42 106 43 219 81 434 146 58 17 60 19 61 53 5 114 15 292
18 307 2 10 7 61 11 113 3 52 9 103 11 113 5 15 0 17 -28 15 -18 -1 -67 -11
-108 -20z"/>
<path d="M5629 5133 c-2 -23 -25 -188 -35 -248 -12 -75 -57 -272 -74 -326
l-18 -59 21 -12 c38 -20 249 -160 337 -223 47 -34 97 -69 112 -79 l26 -17 31
93 c29 89 85 289 95 339 2 13 12 60 21 104 9 44 19 91 21 105 2 14 6 39 9 56
5 30 4 31 -122 93 -134 66 -396 181 -413 181 -6 0 -10 -3 -11 -7z"/>
<path d="M4799 5115 c0 -11 -2 -27 -3 -35 -2 -8 -6 -42 -10 -75 -5 -50 -13
-100 -40 -245 -3 -14 -10 -50 -16 -81 l-12 -55 37 -40 c52 -54 155 -187 199
-256 20 -32 38 -58 40 -58 14 0 72 247 79 335 6 70 -75 253 -181 410 -30 44
-63 89 -73 100 -19 19 -19 19 -20 0z"/>
<path d="M3751 4926 c-24 -68 -70 -182 -103 -252 -33 -71 -62 -134 -64 -141
-3 -6 12 -19 33 -29 210 -99 465 -273 634 -433 41 -38 77 -67 81 -65 27 17
157 276 214 427 l34 92 -67 65 c-108 103 -245 206 -403 302 -100 60 -287 158
-303 158 -6 0 -32 -56 -56 -124z"/>
<path d="M1707 4393 c-49 -80 -91 -167 -127 -259 l-29 -76 32 6 c18 3 43 8 57
11 148 29 301 46 428 47 l74 0 15 37 c8 20 35 78 59 130 24 52 43 95 42 96 -5
4 -132 34 -168 39 -19 3 -51 8 -70 11 -19 3 -90 8 -156 11 l-122 5 -35 -58z"/>
<path d="M1435 4406 c-147 -39 -254 -84 -292 -125 -57 -61 -159 -221 -214
-334 -28 -60 -49 -110 -47 -113 3 -2 64 21 136 50 72 30 175 69 229 86 54 17
103 37 109 43 7 7 26 55 43 107 17 52 55 143 84 203 29 59 50 107 47 107 -3
-1 -45 -11 -95 -24z"/>
<path d="M4634 4348 c-14 -46 -49 -135 -77 -198 -48 -108 -59 -130 -110 -222
l-20 -37 40 -53 c22 -29 59 -81 83 -115 23 -35 44 -63 46 -63 6 0 80 83 142
158 71 88 166 239 165 262 -3 41 -212 350 -237 350 -2 0 -17 -37 -32 -82z"/>
<path d="M5434 4288 c-59 -180 -214 -503 -344 -718 l-79 -130 59 -45 c32 -25
65 -51 72 -58 7 -6 36 -30 63 -52 28 -21 52 -42 55 -45 3 -3 39 -34 80 -69 41
-36 80 -71 87 -79 18 -22 30 -9 115 130 135 220 241 419 318 598 18 41 41 94
51 117 23 50 24 72 5 87 -136 109 -312 231 -408 285 l-56 32 -18 -53z"/>
<path d="M1837 3983 c-2 -1 -33 -4 -71 -8 -88 -7 -238 -33 -248 -43 -18 -18
-63 -267 -75 -417 -10 -129 -7 -479 4 -512 3 -8 12 -9 27 -4 11 5 44 12 71 15
28 4 68 11 90 16 22 5 65 11 95 14 30 4 75 9 100 12 66 8 111 12 150 13 l36 1
-2 208 c-1 114 2 239 6 277 21 180 28 223 55 333 12 51 20 94 16 96 -6 4 -251
3 -254 -1z"/>
<path d="M1255 3866 c-173 -55 -431 -170 -429 -191 1 -5 -3 -21 -8 -35 -11
-29 -44 -184 -53 -250 -3 -25 -8 -56 -10 -70 -14 -95 -25 -525 -13 -535 2 -1
50 15 108 37 58 22 177 61 265 88 l160 48 -4 109 c-8 206 -2 479 13 558 2 11
6 41 10 66 7 47 9 58 25 144 5 27 9 51 8 52 -1 0 -33 -9 -72 -21z"/>
<path d="M5983 3642 c-114 -232 -208 -398 -331 -583 l-69 -104 205 -200 c112
-110 208 -201 212 -203 22 -8 283 430 395 663 112 234 110 230 92 257 -15 24
-294 308 -357 365 l-35 32 -112 -227z"/>
<path d="M3932 3685 c-103 -32 -153 -98 -153 -203 -1 -117 50 -167 216 -211
44 -12 90 -26 102 -32 32 -17 36 -47 8 -75 -39 -39 -106 -30 -127 17 -14 31
-11 31 -138 31 l-65 0 -3 -31 c-4 -42 32 -115 74 -149 56 -45 118 -61 219 -58
78 2 97 6 144 31 63 35 95 73 111 134 22 85 -2 169 -63 215 -33 25 -124 61
-177 71 -45 8 -98 37 -103 56 -5 18 14 48 31 50 44 5 57 3 78 -13 13 -11 24
-26 24 -34 0 -11 20 -14 100 -14 l100 0 -6 35 c-15 94 -79 166 -166 184 -65
15 -153 13 -206 -4z"/>
<path d="M2486 3340 c1 -190 2 -347 3 -350 0 -3 43 -5 94 -5 l92 0 5 149 5
148 96 -148 96 -148 112 -1 c61 -1 111 2 111 6 0 5 -52 85 -116 179 -64 95
-113 177 -110 185 3 8 49 80 103 162 55 81 102 153 105 158 4 7 -32 11 -107
10 l-114 0 -88 -141 -88 -141 -5 141 -5 141 -95 0 -95 0 1 -345z"/>
<path d="M3163 3677 c-9 -14 -10 -659 -1 -678 5 -12 24 -15 92 -14 47 0 88 4
92 7 4 4 6 53 5 108 l-2 101 36 -3 c35 -3 38 -7 86 -98 28 -52 55 -99 60 -105
7 -7 219 -17 219 -10 0 1 -31 58 -69 128 l-68 125 27 21 c16 11 40 45 55 75
33 68 33 148 -1 216 -28 57 -56 83 -119 111 -44 20 -68 22 -228 24 -107 1
-180 -3 -184 -8z m336 -188 c26 -24 27 -69 3 -99 -15 -19 -31 -23 -84 -26
l-66 -4 1 73 c0 39 3 74 8 77 18 13 118 -3 138 -21z"/>
<path d="M523 3514 c-72 -46 -72 -46 -97 -122 -25 -77 -51 -172 -60 -225 -19
-107 -26 -147 -31 -187 -3 -25 -8 -61 -10 -80 -9 -68 -18 -310 -11 -310 4 0
64 28 135 61 l128 62 -6 86 c-15 224 -5 526 23 685 7 42 10 76 7 76 -3 0 -39
-21 -78 -46z"/>
<path d="M4895 3277 c-36 -51 -185 -236 -235 -292 -118 -132 -377 -373 -472
-439 l-21 -15 32 -53 c61 -100 310 -388 336 -388 10 0 61 39 170 133 66 57
299 288 355 352 97 111 152 177 223 269 l77 101 -47 45 c-91 86 -374 330 -383
330 -3 0 -18 -19 -35 -43z"/>
<path d="M1970 2933 c-42 -3 -146 -16 -230 -29 -58 -9 -243 -55 -261 -65 -14
-7 -15 -16 -9 -46 5 -21 12 -58 15 -83 4 -25 20 -103 36 -175 17 -71 32 -138
34 -147 30 -135 137 -443 229 -660 l16 -37 232 79 c308 104 311 106 298 129
-17 33 -106 263 -138 356 -48 144 -109 373 -126 475 -3 19 -7 44 -10 55 -2 11
-7 43 -10 70 -9 63 -15 85 -24 83 -4 -1 -27 -3 -52 -5z"/>
<path d="M5449 2773 c-154 -215 -528 -602 -744 -771 l-47 -36 33 -29 c140
-119 238 -199 320 -262 l96 -74 119 97 c126 103 355 324 471 457 94 108 203
245 203 256 0 13 -393 409 -406 409 -6 0 -26 -21 -45 -47z"/>
<path d="M1190 2753 c-97 -35 -325 -123 -392 -152 -42 -17 -42 -10 -7 -206 6
-33 13 -71 15 -85 29 -162 123 -479 206 -693 55 -142 40 -131 143 -105 22 6
47 11 55 13 8 2 35 8 60 15 25 7 55 14 67 16 21 4 254 69 280 79 8 3 0 34 -28
102 -63 155 -166 455 -184 538 -2 11 -15 65 -28 120 -23 93 -39 167 -52 240
-22 127 -28 155 -34 154 -3 -1 -49 -17 -101 -36z"/>
<path d="M452 2445 l-134 -64 7 -88 c4 -48 9 -97 11 -107 2 -11 6 -42 9 -70 3
-28 8 -58 10 -66 2 -8 7 -35 10 -60 8 -60 63 -313 80 -370 8 -25 24 -80 36
-123 l22 -79 106 6 c104 6 278 30 288 40 3 2 -14 53 -37 113 -62 156 -145 411
-165 503 -2 8 -13 51 -24 95 -18 72 -35 156 -58 284 -5 25 -13 46 -18 47 -6 2
-70 -26 -143 -61z"/>
<path d="M3969 2392 c-176 -116 -507 -269 -674 -312 -27 -7 -54 -16 -58 -20
-24 -21 268 -452 322 -474 40 -18 394 126 586 237 197 113 278 175 248 189 -5
2 -28 28 -53 58 -25 30 -56 68 -70 83 -14 16 -68 88 -121 162 l-95 132 -85
-55z"/>
<path d="M5958 2227 c-155 -206 -418 -481 -628 -657 -36 -29 -69 -58 -75 -62
-10 -9 -10 -9 144 -115 l105 -73 30 20 c58 36 231 168 321 245 114 97 385 364
385 380 0 18 -222 327 -233 325 -1 -1 -23 -29 -49 -63z"/>
<path d="M3037 2023 c-3 -2 -95 -12 -175 -17 -30 -3 -56 -7 -59 -10 -17 -17
139 -395 190 -460 13 -18 27 -20 133 -19 66 1 132 4 149 7 16 3 56 8 88 12 31
4 59 10 62 14 2 4 -19 33 -47 66 -79 92 -194 248 -246 334 -38 64 -51 78 -70
77 -13 -1 -24 -2 -25 -4z"/>
<path d="M4465 1824 c-181 -130 -582 -331 -737 -369 -16 -4 -28 -10 -28 -14 0
-17 176 -163 322 -269 l88 -63 78 20 c139 36 303 102 462 185 133 69 127 66
213 120 73 46 88 60 68 68 -21 8 -252 212 -343 302 -31 31 -60 56 -65 56 -4 0
-31 -16 -58 -36z"/>
<path d="M2265 1695 c-71 -28 -186 -71 -255 -95 -69 -23 -129 -46 -133 -50 -9
-8 75 -173 170 -333 134 -227 361 -547 386 -547 36 0 392 162 489 222 l37 23
-50 60 c-116 139 -279 369 -360 508 -19 33 -41 71 -50 86 -9 15 -34 60 -54 99
-20 40 -40 74 -43 75 -4 2 -65 -19 -137 -48z"/>
<path d="M1594 1467 c-55 -15 -180 -51 -279 -78 -99 -28 -181 -52 -182 -53 -5
-5 131 -266 197 -380 80 -140 154 -254 253 -394 l80 -112 36 6 c41 7 36 6 151
33 94 22 372 100 378 106 4 4 -36 65 -48 75 -14 11 -222 331 -276 425 -31 55
-92 168 -134 250 l-78 151 -98 -29z"/>
<path d="M3525 1399 c-16 -5 -43 -11 -60 -13 -16 -3 -43 -7 -60 -10 -65 -10
-113 -16 -190 -22 -44 -3 -81 -7 -83 -9 -8 -7 116 -129 189 -186 83 -66 101
-73 204 -86 109 -14 421 -8 435 9 3 3 -38 39 -90 78 -98 75 -185 147 -255 213
-43 40 -44 40 -90 26z"/>
<path d="M5005 1323 c-166 -113 -367 -222 -547 -298 -45 -19 -88 -35 -95 -35
-37 0 -15 -24 54 -58 57 -28 87 -38 111 -35 63 8 283 73 395 117 108 42 353
160 390 188 18 13 7 21 -203 159 -24 17 -27 16 -105 -38z"/>
<path d="M2905 706 c-88 -45 -207 -103 -263 -129 l-104 -47 32 -38 c98 -114
362 -370 462 -447 l47 -37 58 38 c210 137 413 292 413 315 0 8 -30 37 -67 65
-94 68 -190 151 -309 266 -55 54 -103 98 -105 97 -2 0 -76 -38 -164 -83z"/>
</g>
</svg>
